<svg width="107" height="107" viewBox="0 0 107 107" fill="none" xmlns="http://www.w3.org/2000/svg">
<path d="M26.75 93.625C22.2916 93.625 18.7436 91.8974 16.1057 88.4422C13.4679 84.987 12.7062 81.1417 13.8208 76.9063L21.8458 46.5896C19.3937 45.0292 17.3689 42.9115 15.7713 40.2365C14.1738 37.5615 13.375 34.5521 13.375 31.2084C13.375 26.3042 15.1212 22.1059 18.6135 18.6136C22.1059 15.1212 26.3041 13.375 31.2083 13.375H66.875C70.2187 13.375 72.7451 14.7868 74.4542 17.6104C76.1632 20.434 76.2746 23.332 74.7885 26.3042L65.8719 44.1375C65.0545 45.6236 63.9585 46.8125 62.5838 47.7042C61.2092 48.5959 59.6673 49.0417 57.9583 49.0417H48.9302L47.7042 53.5H49.0417C50.3048 53.5 51.3637 53.9273 52.2182 54.7818C53.0727 55.6363 53.5 56.6952 53.5 57.9584V66.875C53.5 68.1382 53.0727 69.1971 52.2182 70.0516C51.3637 70.9061 50.3048 71.3333 49.0417 71.3333H43.0229L39.6792 83.8167C38.8618 86.7146 37.2642 89.0738 34.8864 90.8943C32.5087 92.7148 29.7965 93.625 26.75 93.625ZM26.75 84.7083C27.7903 84.7083 28.6819 84.4111 29.425 83.8167C30.168 83.2222 30.6882 82.442 30.9854 81.4761L39.6792 49.0417H30.4281L22.4031 79.1354C22.0316 80.5472 22.2916 81.829 23.1833 82.9807C24.075 84.1325 25.2639 84.7083 26.75 84.7083ZM31.2083 40.125H57.9583L66.875 22.2917H31.2083C28.7562 22.2917 26.6571 23.1648 24.9109 24.911C23.1647 26.6571 22.2916 28.7563 22.2916 31.2084C22.2916 33.6604 23.1647 35.7596 24.9109 37.5057C26.6571 39.2519 28.7562 40.125 31.2083 40.125ZM84.7083 22.2917L81.9219 16.2729L98.0833 8.91669L100.758 15.0469L84.7083 22.2917ZM98.0833 53.5L81.9219 46.2552L84.7083 40.125L100.758 47.4813L98.0833 53.5ZM84.7083 34.5521V27.8646H102.542V34.5521H84.7083Z" fill="#4F657A"/>
</svg>
