<svg width="418" height="163" viewBox="0 0 418 163" fill="none" xmlns="http://www.w3.org/2000/svg">
<path fill-rule="evenodd" clip-rule="evenodd" d="M35.9487 68.6131C32.9272 69.8337 29.6257 70.5059 26.1678 70.5059C11.7155 70.5059 0 58.7695 0 44.2924C0 29.8154 11.7155 18.079 26.1678 18.079C35.704 18.079 44.0493 23.1897 48.6226 30.8257C40.3475 38.1882 35.1436 49.1789 35.2564 61.4121C35.2792 63.8732 35.5164 66.2799 35.9487 68.6131Z" fill="url(#paint0_linear_411_95)"/>
<path fill-rule="evenodd" clip-rule="evenodd" d="M86.4761 22.5427C86.9316 19.3112 88.0015 16.111 89.7302 13.1112C96.9564 0.573347 112.96 -3.72236 125.476 3.51639C137.992 10.7547 142.28 26.7867 135.054 39.3241C130.286 47.5974 121.695 52.282 112.807 52.4318C110.579 41.5717 103.68 31.5616 93.0475 25.5429C90.9083 24.3321 88.7096 23.3344 86.4761 22.5427Z" fill="url(#paint1_linear_411_95)"/>
<path d="M93.7675 64.6807C96.5778 64.6807 98.8558 62.3987 98.8558 59.5836C98.8558 56.7684 96.5778 54.4864 93.7675 54.4864C90.9573 54.4864 88.6797 56.7684 88.6797 59.5836C88.6797 62.3987 90.9573 64.6807 93.7675 64.6807Z" fill="url(#paint2_linear_411_95)"/>
<path d="M80.9997 89.2236C86.0183 88.1079 88.6762 80.838 86.9358 72.9859C85.1955 65.1344 79.7164 59.6741 74.6973 60.7899C69.6787 61.9061 67.0214 69.1755 68.7617 77.0276C70.5016 84.8792 75.9811 90.3394 80.9997 89.2236Z" fill="url(#paint3_linear_411_95)"/>
<path d="M58.1503 104C71.2341 104 94.4942 104 116.3 77.059C116.3 77.059 118.45 94.7089 113.393 104C110.504 109.308 103.217 115.651 103.217 115.651H116.3V162.252C116.3 162.252 88.6792 166.621 71.2341 154.242C53.7891 141.864 50.1547 115.651 50.1547 115.651C50.1547 115.651 45.0662 104 58.1503 104Z" fill="url(#paint4_linear_411_95)"/>
<path fill-rule="evenodd" clip-rule="evenodd" d="M69.4361 90.7936C70.0601 90.8097 70.6667 90.6974 71.2015 90.5254C71.9901 90.2718 72.9274 90.4447 73.3886 91.1329C73.8498 91.8211 73.6659 92.7618 72.9043 93.0879C71.9134 93.5122 70.6837 93.8267 69.3591 93.7927C67.6331 93.7484 65.8196 93.1099 64.267 91.5116C63.6898 90.9174 63.8623 89.9685 64.5396 89.4915C65.2169 89.0145 66.1343 89.204 66.7617 89.745C67.6556 90.5158 68.5879 90.7719 69.4361 90.7936Z" fill="url(#paint5_linear_411_95)"/>
<path fill-rule="evenodd" clip-rule="evenodd" d="M56.2511 67.9561C55.832 68.0299 55.4008 68.2399 55.0029 68.5219C54.3269 69.0009 53.3938 69.1459 52.7389 68.6385C52.084 68.1311 51.9587 67.178 52.5768 66.6265C53.394 65.8972 54.4746 65.2227 55.7309 65.0015C56.7236 64.8267 57.7996 64.9437 58.8496 65.5124C59.5218 65.8764 60.1421 66.4029 60.7102 67.0889C61.2386 67.7269 60.9949 68.6613 60.2845 69.0875C59.5741 69.5136 58.6822 69.2504 58.0944 68.6666C57.8488 68.4227 57.6214 68.2589 57.4209 68.1503C57.0113 67.9285 56.6294 67.8895 56.2511 67.9561Z" fill="url(#paint6_linear_411_95)"/>
<path d="M131.096 108.597L148.567 125.705C150.803 127.894 150.857 131.5 148.688 133.757L130.604 152.572C127.104 156.214 129.715 162.311 134.741 162.229L178.183 161.522C179.551 161.499 180.864 160.975 181.878 160.048L205.443 138.482C207.354 136.734 206.129 133.527 203.55 133.527H176.615C169.256 133.527 165.409 124.694 170.381 119.216L180.239 108.357C183.553 104.706 180.988 98.817 176.082 98.817H135.021C129.956 98.817 127.46 105.037 131.096 108.597Z" fill="#FE3232"/>
<path d="M222.797 67H177.386C172.406 67 169.872 73.0426 173.337 76.6543L189.928 93.9484C192.024 96.1333 192.048 99.5964 189.984 101.812L171.874 121.241C168.517 124.844 170.993 130.758 175.892 130.835L221.889 131.561C223.386 131.585 224.83 131.007 225.904 129.954L252.644 103.746C254.879 101.556 254.932 97.9522 252.763 95.696L226.843 68.728C225.781 67.6234 224.321 67 222.797 67Z" fill="#00A5AA"/>
<path d="M272.455 161.449C268.954 161.411 265.8 161.143 262.928 160.48C260.055 159.83 257.491 158.861 255.247 157.573C253.067 156.247 251.207 154.654 249.707 152.844C248.207 150.995 247.04 148.943 246.296 146.648C245.45 144.29 245.27 141.765 245.232 139.088C245.245 136.399 245.745 133.543 246.655 130.496C247.591 127.296 248.771 124.288 250.271 121.458C251.733 118.64 253.451 116.027 255.465 113.528C257.542 111.144 259.722 108.99 262.068 107.078C264.415 105.165 266.89 103.508 269.621 102.182C272.314 100.78 275.084 99.7473 277.93 98.9824C280.764 98.3579 283.7 98.0137 286.688 98.0262C290.035 98.0009 292.984 98.3579 295.536 99.0846C298.062 99.811 300.229 100.869 301.961 102.284C303.692 103.712 305.076 105.331 306.128 107.256C307.141 109.181 307.808 111.323 308.103 113.72C308.449 116.091 308.5 118.628 308.205 121.305C307.949 123.956 307.359 126.773 306.461 129.769C306.23 130.572 305.91 131.516 305.512 132.523C305.089 133.619 304.756 134.422 304.422 134.971C304.422 134.971 301.64 134.984 297.511 134.996C295.421 134.996 293.01 134.971 290.433 134.984C287.817 134.984 285.06 134.984 282.29 134.984C279.546 134.984 276.789 134.984 274.199 134.971C271.596 134.984 269.185 134.984 267.12 134.996C262.992 134.984 260.247 134.996 260.247 134.996C259.747 138.234 260.132 140.937 261.363 143.129C262.62 145.233 264.454 146.801 266.98 147.999C269.531 149.045 272.506 149.542 276.02 149.567C276.02 149.567 280.187 149.58 284.354 149.555C288.535 149.567 292.702 149.542 292.702 149.542C292.702 149.542 291.805 152.512 290.894 155.508C290.022 158.478 289.112 161.487 289.112 161.487C289.112 161.487 284.944 161.449 280.751 161.436C276.622 161.461 272.455 161.449 272.455 161.449ZM262.902 123.583C262.902 123.583 264.812 123.583 267.698 123.583C269.147 123.571 270.775 123.545 272.635 123.532C274.443 123.571 276.366 123.558 278.289 123.532C280.226 123.558 282.123 123.571 283.944 123.583C285.727 123.571 287.419 123.583 288.881 123.583C291.766 123.571 293.677 123.558 293.677 123.558C294.074 122.041 294.28 122.427 294.331 120.897C294.472 119.341 294.344 117.888 293.92 116.524C293.6 115.122 292.972 113.974 292.035 112.98C291.215 111.922 290.073 111.106 288.548 110.52C287.15 109.87 285.368 109.589 283.265 109.576C280.815 109.564 278.482 110.086 276.315 111.017C274.199 111.947 272.237 113.146 270.467 114.675C268.711 116.129 267.698 117.539 265.173 120.028C263.955 121.864 262.902 123.583 262.902 123.583ZM306.13 161.474C306.13 161.474 306.553 160.085 307.297 157.663C308.04 155.253 309.079 151.786 310.361 147.63C310.977 145.526 311.656 143.27 312.375 140.911C313.118 138.527 313.862 135.991 314.657 133.403C315.426 130.815 316.247 128.125 317.094 125.397C317.914 122.669 318.748 119.851 319.568 117.11C320.415 114.344 321.235 111.552 322.107 108.824C322.915 106.109 323.736 103.419 324.518 100.78C325.313 98.2303 326.057 95.7188 326.762 93.3478C327.505 90.9384 328.185 88.7074 328.826 86.604C330.083 82.4608 331.147 78.955 331.878 76.5711C332.596 74.1489 333.045 72.7849 333.045 72.7849C333.045 72.7849 336.584 72.7849 340.123 72.7849C343.662 72.7849 347.176 72.7849 347.176 72.7849C347.176 72.7849 346.778 74.1617 346.022 76.5584C345.304 78.9423 344.239 82.4608 342.944 86.6167C342.329 88.6437 341.649 90.8746 340.905 93.2585C340.213 95.6551 339.444 98.1794 338.623 100.831C337.854 103.406 337.02 106.122 336.174 108.837C335.353 111.59 334.494 114.344 333.661 117.11C332.827 119.889 331.968 122.681 331.135 125.384C330.301 128.138 329.493 130.815 328.711 133.39C327.903 136.003 327.134 138.527 326.416 140.911C325.698 143.27 325.005 145.539 324.364 147.617C323.094 151.773 322.043 155.228 321.274 157.624C320.556 160.072 320.132 161.474 320.132 161.474C320.132 161.474 316.619 161.436 313.131 161.411C309.63 161.474 306.13 161.474 306.13 161.474ZM329.292 161.411C329.292 161.411 330.472 157.573 332.267 151.798C333.152 148.879 334.191 145.462 335.293 141.855C335.857 140.044 336.434 138.17 337.011 136.258C337.576 134.359 338.204 132.434 338.807 130.496C339.396 128.545 339.999 126.633 340.589 124.721C341.179 122.796 341.743 120.935 342.295 119.112C343.423 115.453 344.462 112.088 345.359 109.181C347.141 103.381 348.334 99.505 348.334 99.505C348.334 99.505 351.86 99.5178 355.374 99.5178C358.913 99.505 362.671 99.4925 362.671 99.4925C362.671 99.4925 357.502 115.491 356.374 119.086C355.81 120.922 355.22 122.809 354.617 124.683C354.04 126.608 353.412 128.545 352.835 130.496C352.232 132.434 351.655 134.359 351.04 136.271C350.463 138.183 349.898 140.032 349.334 141.867C348.193 145.488 347.167 148.879 346.257 151.786C344.461 157.599 343.256 161.398 343.256 161.398C343.256 161.398 339.781 161.474 336.28 161.474C332.767 161.449 329.292 161.411 329.292 161.411ZM352.172 161.474C352.172 161.474 353.07 158.478 354.006 155.508C354.942 152.538 355.865 149.529 355.865 149.529C355.865 149.529 357.724 149.555 360.533 149.555C361.943 149.567 363.572 149.567 365.341 149.567C367.098 149.555 368.97 149.555 370.842 149.567C372.715 149.567 374.574 149.567 376.343 149.542C378.1 149.555 379.716 149.529 381.152 149.555C383.934 149.555 385.832 149.529 385.832 149.529C387.281 149.555 388.653 149.236 389.897 148.599C391.244 147.961 392.359 147.107 393.27 146.049C394.27 144.978 394.924 143.907 395.283 142.773C395.706 141.472 395.783 140.338 395.501 139.33C395.244 138.4 394.68 137.597 393.808 137.049C392.949 136.399 391.833 136.08 390.449 136.08C390.449 136.08 387.397 136.054 384.332 136.067C381.229 136.042 378.241 136.067 378.241 136.067C376.254 136.08 374.407 135.914 372.727 135.57C371.06 135.264 369.586 134.767 368.239 134.142C365.546 132.842 363.738 130.853 362.751 128.163C362.302 126.786 362.11 125.257 362.212 123.51C362.264 121.815 362.649 119.902 363.303 117.837C364.328 114.535 366.098 111.501 368.624 108.697C371.163 105.968 374.138 103.75 377.549 102.042C380.934 100.346 384.434 99.4925 388.051 99.505C388.051 99.505 389.872 99.505 392.59 99.4925C395.308 99.5178 398.925 99.4925 402.592 99.4925C406.182 99.505 409.836 99.505 412.567 99.5178C415.273 99.505 417.094 99.505 417.094 99.505C417.094 99.505 416.158 102.475 415.209 105.446C414.273 108.429 413.326 111.399 413.326 111.399C413.326 111.399 411.595 111.399 408.99 111.399C406.4 111.399 402.951 111.399 399.476 111.399C396.001 111.336 392.564 111.386 389.974 111.399C387.371 111.399 385.666 111.348 385.666 111.348C383.768 111.386 382.024 112.011 380.421 113.235C378.818 114.344 377.78 115.772 377.241 117.48C376.728 119.099 376.907 120.527 377.728 121.738C378.588 122.962 380.011 123.548 382.062 123.548C382.062 123.548 385.024 123.548 387.987 123.536C390.961 123.548 393.911 123.523 393.911 123.523C396.155 123.548 398.194 123.714 400.002 124.058C401.797 124.415 403.374 124.925 404.759 125.626C407.516 127.003 409.235 129.068 409.991 131.835C410.428 133.186 410.569 134.767 410.374 136.5C410.298 138.247 409.926 140.147 409.235 142.275C408.106 145.679 406.298 148.866 403.605 151.862C400.963 154.807 397.886 157.14 394.321 158.886C392.603 159.715 390.833 160.391 389.012 160.799C387.243 161.257 385.396 161.474 383.537 161.474C383.537 161.474 381.575 161.461 378.652 161.436C377.177 161.449 375.459 161.449 373.625 161.436C371.753 161.436 369.816 161.436 367.855 161.436C365.906 161.449 363.918 161.449 362.097 161.474C360.25 161.461 358.532 161.474 357.058 161.474C354.121 161.449 352.172 161.474 352.172 161.474Z" fill="#4F657A"/>
<path d="M369.355 74.7131H354.28L350.259 90.1396H364.777L369.355 74.7131Z" fill="#4F657A"/>
<path d="M123.14 76.1253C121.232 73.5559 121.493 72.4066 121.493 72.4066C121.493 72.4066 122.523 72.3093 125.354 73.1677C141.886 79.3567 149.341 86.7584 156.111 94.3847C145.891 90.8233 126.507 80.656 123.14 76.1253Z" fill="url(#paint7_linear_411_95)"/>
<path d="M126.245 65.1656C122.374 65.113 121.145 64.3205 121.145 64.3205C121.145 64.3205 121.492 63.5593 123.761 62.0676C138.404 53.9691 150.421 52.772 162.396 52.1659C153.65 57.3124 133.063 65.2579 126.245 65.1656Z" fill="url(#paint8_linear_411_95)"/>
<path d="M127.848 71.3621C125.118 70.2491 124.678 69.346 124.678 69.346C124.678 69.346 125.347 68.9041 127.787 68.4812C142.709 66.8328 151.939 69.3304 160.809 72.2334C151.731 73.4382 132.657 73.3251 127.848 71.3621Z" fill="url(#paint9_linear_411_95)"/>
<defs>
<linearGradient id="paint0_linear_411_95" x1="24.5399" y1="27.1489" x2="71.0737" y2="95.6089" gradientUnits="userSpaceOnUse">
<stop stop-color="#00A5AA"/>
<stop offset="1" stop-color="#00005A"/>
</linearGradient>
<linearGradient id="paint1_linear_411_95" x1="112.765" y1="9.07068" x2="158.05" y2="80.4343" gradientUnits="userSpaceOnUse">
<stop stop-color="#00A5AA"/>
<stop offset="1" stop-color="#00005A"/>
</linearGradient>
<linearGradient id="paint2_linear_411_95" x1="93.8156" y1="56.25" x2="102.602" y2="70.1634" gradientUnits="userSpaceOnUse">
<stop stop-color="#00A5AA"/>
<stop offset="1" stop-color="#00005A"/>
</linearGradient>
<linearGradient id="paint3_linear_411_95" x1="77.805" y1="65.5975" x2="105.639" y2="94.1807" gradientUnits="userSpaceOnUse">
<stop stop-color="#00A5AA"/>
<stop offset="1" stop-color="#00005A"/>
</linearGradient>
<linearGradient id="paint4_linear_411_95" x1="83.2852" y1="91.9268" x2="163.359" y2="191.801" gradientUnits="userSpaceOnUse">
<stop stop-color="#00A5AA"/>
<stop offset="1" stop-color="#00005A"/>
</linearGradient>
<linearGradient id="paint5_linear_411_95" x1="71.8527" y1="89.7639" x2="76.6371" y2="100.939" gradientUnits="userSpaceOnUse">
<stop stop-color="#00A5AA"/>
<stop offset="1" stop-color="#00005A"/>
</linearGradient>
<linearGradient id="paint6_linear_411_95" x1="57.5806" y1="65.3783" x2="58.7082" y2="74.9755" gradientUnits="userSpaceOnUse">
<stop stop-color="#00A5AA"/>
<stop offset="1" stop-color="#00005A"/>
</linearGradient>
<linearGradient id="paint7_linear_411_95" x1="139.558" y1="73.8118" x2="142.085" y2="137.011" gradientUnits="userSpaceOnUse">
<stop stop-color="#00A5AA"/>
<stop offset="1" stop-color="#00005A"/>
</linearGradient>
<linearGradient id="paint8_linear_411_95" x1="142.376" y1="50.583" x2="142.895" y2="102.994" gradientUnits="userSpaceOnUse">
<stop stop-color="#00A5AA"/>
<stop offset="1" stop-color="#00005A"/>
</linearGradient>
<linearGradient id="paint9_linear_411_95" x1="142.947" y1="68.2173" x2="142.154" y2="84.8073" gradientUnits="userSpaceOnUse">
<stop stop-color="#00A5AA"/>
<stop offset="1" stop-color="#00005A"/>
</linearGradient>
</defs>
</svg>
