<svg width="289" height="96" viewBox="0 0 289 96" fill="none" xmlns="http://www.w3.org/2000/svg">
<path d="M2.09596 41.5969L19.567 58.7049C21.803 60.8939 21.857 64.4999 19.688 66.7569L1.60397 85.5719C-1.89603 89.2139 0.714968 95.3109 5.74097 95.2289L49.183 94.5219C50.551 94.4989 51.864 93.9749 52.878 93.0479L76.443 71.4819C78.354 69.7339 77.129 66.5269 74.55 66.5269H47.615C40.256 66.5269 36.409 57.6939 41.381 52.2159L51.239 41.3569C54.553 37.7059 51.988 31.8169 47.082 31.8169H6.02097C0.955966 31.8169 -1.54004 38.0369 2.09596 41.5969Z" fill="white"/>
<path d="M93.7972 0H48.3862C43.4062 0 40.8722 6.0426 44.3372 9.6543L60.9282 26.9484C63.0242 29.1333 63.0482 32.5964 60.9842 34.812L42.8742 54.241C39.5172 57.844 41.9932 63.758 46.8922 63.835L92.8892 64.561C94.3862 64.585 95.8302 64.007 96.9042 62.954L123.644 36.746C125.879 34.556 125.932 30.9522 123.763 28.696L97.8432 1.728C96.7812 0.623397 95.3212 0 93.7972 0Z" fill="white"/>
<path d="M143.455 94.449C139.954 94.411 136.8 94.143 133.928 93.48C131.055 92.83 128.491 91.861 126.247 90.573C124.067 89.247 122.207 87.654 120.707 85.844C119.207 83.995 118.04 81.943 117.296 79.648C116.45 77.29 116.27 74.765 116.232 72.088C116.245 69.399 116.745 66.543 117.655 63.496C118.591 60.296 119.771 57.288 121.271 54.458C122.733 51.64 124.451 49.027 126.465 46.528C128.542 44.144 130.722 41.99 133.068 40.078C135.415 38.165 137.89 36.508 140.621 35.182C143.314 33.78 146.084 32.7473 148.93 31.9824C151.764 31.3579 154.7 31.0137 157.688 31.0262C161.035 31.0009 163.984 31.3579 166.536 32.0846C169.062 32.811 171.229 33.869 172.961 35.284C174.692 36.712 176.076 38.331 177.128 40.256C178.141 42.181 178.808 44.323 179.103 46.72C179.449 49.091 179.5 51.628 179.205 54.305C178.949 56.956 178.359 59.773 177.461 62.769C177.23 63.572 176.91 64.516 176.512 65.523C176.089 66.619 175.756 67.422 175.422 67.971C175.422 67.971 172.64 67.984 168.511 67.996C166.421 67.996 164.01 67.971 161.433 67.984C158.817 67.984 156.06 67.984 153.29 67.984C150.546 67.984 147.789 67.984 145.199 67.971C142.596 67.984 140.185 67.984 138.12 67.996C133.992 67.984 131.247 67.996 131.247 67.996C130.747 71.234 131.132 73.937 132.363 76.129C133.62 78.233 135.454 79.801 137.98 80.999C140.531 82.045 143.506 82.542 147.02 82.567C147.02 82.567 151.187 82.58 155.354 82.555C159.535 82.567 163.702 82.542 163.702 82.542C163.702 82.542 162.805 85.512 161.894 88.508C161.022 91.478 160.112 94.487 160.112 94.487C160.112 94.487 155.944 94.449 151.751 94.436C147.622 94.461 143.455 94.449 143.455 94.449ZM133.902 56.583C133.902 56.583 135.812 56.583 138.698 56.583C140.147 56.571 141.775 56.545 143.635 56.532C145.443 56.571 147.366 56.558 149.289 56.532C151.226 56.558 153.123 56.571 154.944 56.583C156.727 56.571 158.419 56.583 159.881 56.583C162.766 56.571 164.677 56.558 164.677 56.558C165.074 55.041 165.28 55.427 165.331 53.897C165.472 52.341 165.344 50.888 164.92 49.524C164.6 48.122 163.972 46.974 163.035 45.98C162.215 44.922 161.073 44.106 159.548 43.52C158.15 42.87 156.368 42.589 154.265 42.576C151.815 42.564 149.482 43.086 147.315 44.017C145.199 44.947 143.237 46.146 141.467 47.675C139.711 49.129 138.698 50.539 136.173 53.028C134.955 54.864 133.902 56.583 133.902 56.583ZM177.13 94.474C177.13 94.474 177.553 93.085 178.297 90.663C179.04 88.253 180.079 84.786 181.361 80.63C181.977 78.526 182.656 76.27 183.375 73.911C184.118 71.527 184.862 68.991 185.657 66.403C186.426 63.815 187.247 61.125 188.094 58.397C188.914 55.669 189.748 52.851 190.568 50.11C191.415 47.344 192.235 44.552 193.107 41.824C193.915 39.109 194.736 36.419 195.518 33.78C196.313 31.2303 197.057 28.7188 197.762 26.3478C198.505 23.9384 199.185 21.7074 199.826 19.604C201.083 15.4608 202.147 11.955 202.878 9.57111C203.596 7.14891 204.045 5.78491 204.045 5.78491C204.045 5.78491 207.584 5.78491 211.123 5.78491C214.662 5.78491 218.176 5.78491 218.176 5.78491C218.176 5.78491 217.778 7.16172 217.022 9.55842C216.304 11.9423 215.239 15.4608 213.944 19.6167C213.329 21.6437 212.649 23.8746 211.905 26.2585C211.213 28.6551 210.444 31.1794 209.623 33.831C208.854 36.406 208.02 39.122 207.174 41.837C206.353 44.59 205.494 47.344 204.661 50.11C203.827 52.889 202.968 55.681 202.135 58.384C201.301 61.138 200.493 63.815 199.711 66.39C198.903 69.003 198.134 71.527 197.416 73.911C196.698 76.27 196.005 78.539 195.364 80.617C194.094 84.773 193.043 88.228 192.274 90.624C191.556 93.072 191.132 94.474 191.132 94.474C191.132 94.474 187.619 94.436 184.131 94.411C180.63 94.474 177.13 94.474 177.13 94.474ZM200.292 94.411C200.292 94.411 201.472 90.573 203.267 84.798C204.152 81.879 205.191 78.462 206.293 74.855C206.857 73.044 207.434 71.17 208.011 69.258C208.576 67.359 209.204 65.434 209.807 63.496C210.396 61.545 210.999 59.633 211.589 57.721C212.179 55.796 212.743 53.935 213.295 52.112C214.423 48.453 215.462 45.088 216.359 42.181C218.141 36.381 219.334 32.505 219.334 32.505C219.334 32.505 222.86 32.5178 226.374 32.5178C229.913 32.505 233.671 32.4925 233.671 32.4925C233.671 32.4925 228.502 48.491 227.374 52.086C226.81 53.922 226.22 55.809 225.617 57.683C225.04 59.608 224.412 61.545 223.835 63.496C223.232 65.434 222.655 67.359 222.04 69.271C221.463 71.183 220.898 73.032 220.334 74.867C219.193 78.488 218.167 81.879 217.257 84.786C215.461 90.599 214.256 94.398 214.256 94.398C214.256 94.398 210.781 94.474 207.28 94.474C203.767 94.449 200.292 94.411 200.292 94.411ZM223.172 94.474C223.172 94.474 224.07 91.478 225.006 88.508C225.942 85.538 226.865 82.529 226.865 82.529C226.865 82.529 228.724 82.555 231.533 82.555C232.943 82.567 234.572 82.567 236.341 82.567C238.098 82.555 239.97 82.555 241.842 82.567C243.715 82.567 245.574 82.567 247.343 82.542C249.1 82.555 250.716 82.529 252.152 82.555C254.934 82.555 256.832 82.529 256.832 82.529C258.281 82.555 259.653 82.236 260.897 81.599C262.244 80.961 263.359 80.107 264.27 79.049C265.27 77.978 265.924 76.907 266.283 75.773C266.706 74.472 266.783 73.338 266.501 72.33C266.244 71.4 265.68 70.597 264.808 70.049C263.949 69.399 262.833 69.08 261.449 69.08C261.449 69.08 258.397 69.054 255.332 69.067C252.229 69.042 249.241 69.067 249.241 69.067C247.254 69.08 245.407 68.914 243.727 68.57C242.06 68.264 240.586 67.767 239.239 67.142C236.546 65.842 234.738 63.853 233.751 61.163C233.302 59.786 233.11 58.257 233.212 56.51C233.264 54.815 233.649 52.902 234.303 50.837C235.328 47.535 237.098 44.501 239.624 41.697C242.163 38.968 245.138 36.75 248.549 35.042C251.934 33.346 255.434 32.4925 259.051 32.505C259.051 32.505 260.872 32.505 263.59 32.4925C266.308 32.5178 269.925 32.4925 273.592 32.4925C277.182 32.505 280.836 32.505 283.567 32.5178C286.273 32.505 288.094 32.505 288.094 32.505C288.094 32.505 287.158 35.475 286.209 38.446C285.273 41.429 284.326 44.399 284.326 44.399C284.326 44.399 282.595 44.399 279.99 44.399C277.4 44.399 273.951 44.399 270.476 44.399C267.001 44.336 263.564 44.386 260.974 44.399C258.371 44.399 256.666 44.348 256.666 44.348C254.768 44.386 253.024 45.011 251.421 46.235C249.818 47.344 248.78 48.772 248.241 50.48C247.728 52.099 247.907 53.527 248.728 54.738C249.588 55.962 251.011 56.548 253.062 56.548C253.062 56.548 256.024 56.548 258.987 56.536C261.961 56.548 264.911 56.523 264.911 56.523C267.155 56.548 269.194 56.714 271.002 57.058C272.797 57.415 274.374 57.925 275.759 58.626C278.516 60.003 280.235 62.068 280.991 64.835C281.428 66.186 281.569 67.767 281.374 69.5C281.298 71.247 280.926 73.147 280.235 75.275C279.106 78.679 277.298 81.866 274.605 84.862C271.963 87.807 268.886 90.14 265.321 91.886C263.603 92.715 261.833 93.391 260.012 93.799C258.243 94.257 256.396 94.474 254.537 94.474C254.537 94.474 252.575 94.461 249.652 94.436C248.177 94.449 246.459 94.449 244.625 94.436C242.753 94.436 240.816 94.436 238.855 94.436C236.906 94.449 234.918 94.449 233.097 94.474C231.25 94.461 229.532 94.474 228.058 94.474C225.121 94.449 223.172 94.474 223.172 94.474Z" fill="white"/>
<path d="M240.355 7.71313H225.28L221.259 23.1396H235.777L240.355 7.71313Z" fill="white"/>
</svg>
