<svg width="110" height="110" viewBox="0 0 110 110" fill="none" xmlns="http://www.w3.org/2000/svg">
<path d="M9.16663 100.833C9.16663 92.3542 10.2934 85.1163 12.5468 79.1198C14.8003 73.1233 17.684 68.1389 21.1979 64.1667C24.7118 60.1945 28.6458 57.1198 33 54.9427C37.3541 52.7656 41.6319 51.257 45.8333 50.4167V36.6667C35.368 35.3681 26.6406 32.1406 19.651 26.9844C12.6614 21.8281 9.16663 15.8889 9.16663 9.16669H100.833C100.833 15.8889 97.3385 21.8281 90.3489 26.9844C83.3593 32.1406 74.6319 35.3681 64.1666 36.6667V50.4167C68.368 51.257 72.6458 52.7656 77 54.9427C81.3541 57.1198 85.2881 60.1945 88.802 64.1667C92.3159 68.1389 95.1996 73.1233 97.4531 79.1198C99.7066 85.1163 100.833 92.3542 100.833 100.833H73.3333V91.6667H91.0937C89.7187 80.0556 85.3836 71.6528 78.0885 66.4584C70.7934 61.2639 63.0972 58.6667 55 58.6667C46.9027 58.6667 39.2066 61.2639 31.9114 66.4584C24.6163 71.6528 20.2812 80.0556 18.9062 91.6667H36.6666V100.833H9.16663ZM55 28.0729C61.9513 28.0729 68.1388 27.1372 73.5625 25.2656C78.9861 23.3941 83.302 21.0834 86.5104 18.3334H23.4895C26.6979 21.0834 31.0138 23.3941 36.4375 25.2656C41.8611 27.1372 48.0486 28.0729 55 28.0729ZM55 100.833C52.4791 100.833 50.3211 99.9358 48.526 98.1406C46.7309 96.3455 45.8333 94.1875 45.8333 91.6667C45.8333 90.3681 46.0816 89.184 46.5781 88.1146C47.0746 87.0452 47.743 86.0903 48.5833 85.25C50.4166 83.4167 53.5104 81.4879 57.8645 79.4636C62.2187 77.4393 67.375 75.3959 73.3333 73.3334C71.1944 79.2917 69.1319 84.4479 67.1458 88.8021C65.1597 93.1563 63.25 96.25 61.4166 98.0834C60.5763 98.9236 59.6215 99.592 58.552 100.089C57.4826 100.585 56.2986 100.833 55 100.833Z" fill="#4F657A"/>
</svg>
