<svg width="109" height="109" viewBox="0 0 109 109" fill="none" xmlns="http://www.w3.org/2000/svg">
<path d="M54.5 45.4166L48.1416 39.0583L55.2948 31.7916H36.3333V22.7083H55.2948L48.0281 15.4416L54.5 9.08331L72.6666 27.25L54.5 45.4166ZM31.7916 99.9166C29.2937 99.9166 27.1553 99.0272 25.3765 97.2484C23.5977 95.4696 22.7083 93.3312 22.7083 90.8333C22.7083 88.3354 23.5977 86.197 25.3765 84.4182C27.1553 82.6394 29.2937 81.75 31.7916 81.75C34.2895 81.75 36.4279 82.6394 38.2067 84.4182C39.9855 86.197 40.875 88.3354 40.875 90.8333C40.875 93.3312 39.9855 95.4696 38.2067 97.2484C36.4279 99.0272 34.2895 99.9166 31.7916 99.9166ZM77.2083 99.9166C74.7104 99.9166 72.572 99.0272 70.7932 97.2484C69.0144 95.4696 68.125 93.3312 68.125 90.8333C68.125 88.3354 69.0144 86.197 70.7932 84.4182C72.572 82.6394 74.7104 81.75 77.2083 81.75C79.7062 81.75 81.8446 82.6394 83.6234 84.4182C85.4022 86.197 86.2916 88.3354 86.2916 90.8333C86.2916 93.3312 85.4022 95.4696 83.6234 97.2484C81.8446 99.0272 79.7062 99.9166 77.2083 99.9166ZM4.54163 18.1666V9.08331H19.4156L38.7177 49.9583H70.5093L88.2218 18.1666H98.5541L78.5708 54.2729C77.7382 55.7868 76.6217 56.96 75.2213 57.7927C73.821 58.6253 72.2882 59.0416 70.6229 59.0416H36.7875L31.7916 68.125H86.2916V77.2083H31.7916C28.3854 77.2083 25.7928 75.7323 24.014 72.7802C22.2352 69.8281 22.1784 66.8382 23.8437 63.8104L29.975 52.6833L13.625 18.1666H4.54163Z" fill="#4F657A"/>
</svg>
